<svg version="1.1" xmlns="http://www.w3.org/2000/svg" viewBox="0 0 708 128"><polygon fill="white" points="166.1,25 191.1,25 191.1,0 -0.9,0 -0.9,128 191.1,128 191.1,64 166.1,64 166.1,103 24.1,103 24.1,25"/><g><path fill="white" d="M202.9,86.8c0-23.2,13.8-40.4,37.2-40.4c20.5,0,31,10.4,34.6,27.6l-19.5,0.9c-1.4-8.1-5.9-13-14.9-13 c-11.9,0-18,10.4-18,25c0,14.6,5.6,24.7,18.3,24.7c9,0,14.6-5.4,15.5-13.7h-15.9V84.7h34.7v40.5h-11.3l-0.7-10.4 c-4,7.5-13.1,12.2-24.2,12.2C216.4,126.9,202.9,110.7,202.9,86.8z"/><path fill="white" d="M284.3,86.8c0-24.7,14.3-40.4,38.3-40.4c23.9,0,38.3,15.6,38.3,40.4c0,24.7-14.4,40.1-38.3,40.1 C298.7,126.9,284.3,111.5,284.3,86.8z M341.5,86.8c0-15.7-7.1-25-18.9-25s-18.9,9.2-18.9,25c0,15.7,7.1,24.7,18.9,24.7 S341.5,102.5,341.5,86.8z"/><path fill="white" d="M370.9,48.2h27.4c25.4,0,39.6,13.9,39.6,38.6c0,24.6-14,38.4-38.9,38.4h-28.1V48.2z M398.4,109.8 c13.9,0,20.2-7.4,20.2-23.1c0-15.7-6.3-23.1-20.2-23.1h-8.6v46.2H398.4z"/><path fill="white" d="M446.9,86.8c0-24.7,14.3-40.4,38.3-40.4c23.9,0,38.3,15.6,38.3,40.4c0,24.7-14.4,40.1-38.3,40.1 C461.2,126.9,446.9,111.5,446.9,86.8z M504,86.8c0-15.7-7.1-25-18.9-25s-18.9,9.2-18.9,25c0,15.7,7.1,24.7,18.9,24.7 S504,102.5,504,86.8z"/><path fill="white" d="M525.7,48.2h19.6L557.7,99l12.6-50.9H586L598.6,99l12.3-50.9h19.5l-20.8,77h-19.7l-11.7-45.8l-11.7,45.8h-19.6L525.7,48.2z"/><path fill="white" d="M638.8,48.2h19.9l28.2,48.3V48.2h18.9v77h-20L657.7,79v46.2h-18.9V48.2z"/></g></svg>